<mxfile host="Electron" modified="2024-05-23T23:42:08.232Z" agent="Mozilla/5.0 (Windows NT 10.0; Win64; x64) AppleWebKit/537.36 (KHTML, like Gecko) draw.io/23.0.2 Chrome/120.0.6099.109 Electron/28.1.0 Safari/537.36" etag="n1Ns5CMBi2WF2o5zE0zI" version="23.0.2" type="device" pages="4">
  <diagram name="Flujo de eventos" id="zBhicTsyFizKEP22qASS">
    <mxGraphModel dx="880" dy="524" grid="1" gridSize="10" guides="1" tooltips="1" connect="1" arrows="1" fold="1" page="1" pageScale="1" pageWidth="827" pageHeight="1169" math="0" shadow="0">
      <root>
        <mxCell id="0" />
        <mxCell id="1" parent="0" />
        <mxCell id="DtO1B4QK6cwAfSESsc6j-1" value="" style="group" parent="1" vertex="1" connectable="0">
          <mxGeometry x="70" y="40" width="110" height="650" as="geometry" />
        </mxCell>
        <mxCell id="DtO1B4QK6cwAfSESsc6j-2" value="&lt;font color=&quot;#ffffff&quot; style=&quot;font-size: 36px;&quot;&gt;1&lt;/font&gt;" style="ellipse;whiteSpace=wrap;html=1;aspect=fixed;fillColor=#000000;" parent="DtO1B4QK6cwAfSESsc6j-1" vertex="1">
          <mxGeometry width="80" height="80" as="geometry" />
        </mxCell>
        <mxCell id="DtO1B4QK6cwAfSESsc6j-3" value="" style="edgeStyle=orthogonalEdgeStyle;rounded=0;orthogonalLoop=1;jettySize=auto;html=1;endArrow=none;endFill=0;dashed=1;" parent="DtO1B4QK6cwAfSESsc6j-1" source="WYxPXVG2yBXY65vRxHix-4" edge="1">
          <mxGeometry relative="1" as="geometry">
            <mxPoint x="40" y="640" as="targetPoint" />
            <mxPoint x="390" y="152.64187866927594" as="sourcePoint" />
          </mxGeometry>
        </mxCell>
        <mxCell id="WYxPXVG2yBXY65vRxHix-4" value="Pago&lt;br&gt;" style="rounded=0;whiteSpace=wrap;html=1;fillColor=#e6d0de;strokeColor=#996185;gradientColor=#d5739d;" parent="DtO1B4QK6cwAfSESsc6j-1" vertex="1">
          <mxGeometry x="-20" y="210" width="120" height="60" as="geometry" />
        </mxCell>
        <mxCell id="WYxPXVG2yBXY65vRxHix-5" value="" style="edgeStyle=orthogonalEdgeStyle;rounded=0;orthogonalLoop=1;jettySize=auto;html=1;endArrow=none;endFill=0;dashed=1;" parent="DtO1B4QK6cwAfSESsc6j-1" source="DtO1B4QK6cwAfSESsc6j-2" target="WYxPXVG2yBXY65vRxHix-4" edge="1">
          <mxGeometry relative="1" as="geometry">
            <mxPoint x="110" y="680" as="targetPoint" />
            <mxPoint x="110" y="120" as="sourcePoint" />
          </mxGeometry>
        </mxCell>
      </root>
    </mxGraphModel>
  </diagram>
  <diagram id="LfHUw2b1Mqzj6z31MRwS" name="Pago - Event Storming">
    <mxGraphModel dx="2240" dy="2217" grid="1" gridSize="10" guides="1" tooltips="1" connect="1" arrows="1" fold="1" page="1" pageScale="1" pageWidth="827" pageHeight="1169" math="0" shadow="0">
      <root>
        <mxCell id="0" />
        <mxCell id="1" parent="0" />
        <mxCell id="Yvo61abbtXtxRw5pMssy-1" value="" style="rounded=1;whiteSpace=wrap;html=1;dashed=1;strokeColor=#fff93d;" parent="1" vertex="1">
          <mxGeometry x="90" y="30" width="1530" height="880" as="geometry" />
        </mxCell>
        <mxCell id="Yvo61abbtXtxRw5pMssy-2" value="&lt;font style=&quot;font-size: 36px;&quot;&gt;Pago&lt;br&gt;&lt;/font&gt;" style="text;html=1;align=center;verticalAlign=middle;resizable=0;points=[];autosize=1;strokeColor=none;fillColor=none;fontStyle=1" parent="1" vertex="1">
          <mxGeometry x="770" y="30" width="110" height="60" as="geometry" />
        </mxCell>
        <mxCell id="Yvo61abbtXtxRw5pMssy-3" value="Actor" style="whiteSpace=wrap;html=1;aspect=fixed;fillColor=#FCFCAA;" parent="1" vertex="1">
          <mxGeometry x="40" y="-230" width="80" height="80" as="geometry" />
        </mxCell>
        <mxCell id="Yvo61abbtXtxRw5pMssy-4" value="Comandos" style="whiteSpace=wrap;html=1;aspect=fixed;fillColor=#BDD7EE;" parent="1" vertex="1">
          <mxGeometry x="150" y="-230" width="80" height="80" as="geometry" />
        </mxCell>
        <mxCell id="Yvo61abbtXtxRw5pMssy-5" value="Enttity" style="whiteSpace=wrap;html=1;aspect=fixed;fillColor=#FFFF00;" parent="1" vertex="1">
          <mxGeometry x="260" y="-230" width="80" height="80" as="geometry" />
        </mxCell>
        <mxCell id="Yvo61abbtXtxRw5pMssy-6" value="Real&amp;nbsp; Model" style="whiteSpace=wrap;html=1;aspect=fixed;fillColor=#92D050;" parent="1" vertex="1">
          <mxGeometry x="380" y="-230" width="80" height="80" as="geometry" />
        </mxCell>
        <mxCell id="Yvo61abbtXtxRw5pMssy-7" value="Bussines Rules" style="whiteSpace=wrap;html=1;aspect=fixed;fillColor=#CC99FF;" parent="1" vertex="1">
          <mxGeometry x="490" y="-230" width="80" height="80" as="geometry" />
        </mxCell>
        <mxCell id="Yvo61abbtXtxRw5pMssy-8" value="External System" style="whiteSpace=wrap;html=1;aspect=fixed;fillColor=#FDD3FA;" parent="1" vertex="1">
          <mxGeometry x="590" y="-230" width="80" height="80" as="geometry" />
        </mxCell>
        <mxCell id="Yvo61abbtXtxRw5pMssy-9" value="Event&lt;br&gt;" style="whiteSpace=wrap;html=1;aspect=fixed;fillColor=#FFC000;" parent="1" vertex="1">
          <mxGeometry x="790" y="-230" width="80" height="80" as="geometry" />
        </mxCell>
        <mxCell id="Yvo61abbtXtxRw5pMssy-10" value="Hostpot" style="whiteSpace=wrap;html=1;aspect=fixed;fillColor=#FA90B1;" parent="1" vertex="1">
          <mxGeometry x="890" y="-230" width="80" height="80" as="geometry" />
        </mxCell>
        <mxCell id="Yvo61abbtXtxRw5pMssy-11" value="Eventos Previos" style="whiteSpace=wrap;html=1;aspect=fixed;fillColor=#D6DCE4;" parent="1" vertex="1">
          <mxGeometry x="700" y="-230" width="80" height="80" as="geometry" />
        </mxCell>
        <mxCell id="U72urnrVb7foCrX-JU2N-100" style="edgeStyle=orthogonalEdgeStyle;rounded=0;orthogonalLoop=1;jettySize=auto;html=1;strokeColor=#f316d5;strokeWidth=3;" parent="1" source="Yvo61abbtXtxRw5pMssy-15" target="U72urnrVb7foCrX-JU2N-11" edge="1">
          <mxGeometry relative="1" as="geometry">
            <Array as="points">
              <mxPoint x="650" y="170" />
              <mxPoint x="1236" y="170" />
            </Array>
          </mxGeometry>
        </mxCell>
        <mxCell id="Yvo61abbtXtxRw5pMssy-15" value="Pago Creado" style="whiteSpace=wrap;html=1;aspect=fixed;fillColor=#FFC000;" parent="1" vertex="1">
          <mxGeometry x="610" y="277.5" width="80" height="80" as="geometry" />
        </mxCell>
        <mxCell id="Yvo61abbtXtxRw5pMssy-16" value="Pago" style="whiteSpace=wrap;html=1;aspect=fixed;fillColor=#FFFF00;" parent="1" vertex="1">
          <mxGeometry x="530" y="277.5" width="80" height="80" as="geometry" />
        </mxCell>
        <mxCell id="Yvo61abbtXtxRw5pMssy-17" value="Crear&amp;nbsp;Pago" style="whiteSpace=wrap;html=1;aspect=fixed;fillColor=#BDD7EE;" parent="1" vertex="1">
          <mxGeometry x="450" y="277.5" width="80" height="80" as="geometry" />
        </mxCell>
        <mxCell id="Yvo61abbtXtxRw5pMssy-19" value="Pol-Pago-001: No debe existir otro tipo de pago con el mismo nombre" style="whiteSpace=wrap;html=1;aspect=fixed;fillColor=#CC99FF;" parent="1" vertex="1">
          <mxGeometry x="500" y="357.5" width="150" height="150" as="geometry" />
        </mxCell>
        <mxCell id="U72urnrVb7foCrX-JU2N-30" style="edgeStyle=orthogonalEdgeStyle;rounded=0;orthogonalLoop=1;jettySize=auto;html=1;curved=1;" parent="1" source="Yvo61abbtXtxRw5pMssy-28" target="Yvo61abbtXtxRw5pMssy-17" edge="1">
          <mxGeometry relative="1" as="geometry">
            <Array as="points">
              <mxPoint x="380" y="190" />
              <mxPoint x="380" y="320" />
            </Array>
          </mxGeometry>
        </mxCell>
        <mxCell id="Yvo61abbtXtxRw5pMssy-28" value="Administrador General" style="whiteSpace=wrap;html=1;aspect=fixed;fillColor=#FCFCAA;" parent="1" vertex="1">
          <mxGeometry x="220" y="187.5" width="80" height="80" as="geometry" />
        </mxCell>
        <mxCell id="U72urnrVb7foCrX-JU2N-31" style="edgeStyle=orthogonalEdgeStyle;rounded=0;orthogonalLoop=1;jettySize=auto;html=1;" parent="1" source="Yvo61abbtXtxRw5pMssy-31" target="Yvo61abbtXtxRw5pMssy-17" edge="1">
          <mxGeometry relative="1" as="geometry" />
        </mxCell>
        <mxCell id="Yvo61abbtXtxRw5pMssy-31" value="Administrador Spa" style="whiteSpace=wrap;html=1;aspect=fixed;fillColor=#FCFCAA;" parent="1" vertex="1">
          <mxGeometry x="220" y="277.5" width="80" height="80" as="geometry" />
        </mxCell>
        <mxCell id="U72urnrVb7foCrX-JU2N-28" style="edgeStyle=orthogonalEdgeStyle;rounded=0;orthogonalLoop=1;jettySize=auto;html=1;curved=1;" parent="1" source="Yvo61abbtXtxRw5pMssy-36" target="Yvo61abbtXtxRw5pMssy-17" edge="1">
          <mxGeometry relative="1" as="geometry">
            <Array as="points">
              <mxPoint x="380" y="412" />
              <mxPoint x="380" y="318" />
            </Array>
          </mxGeometry>
        </mxCell>
        <mxCell id="Yvo61abbtXtxRw5pMssy-36" value="Lider de Inventario" style="whiteSpace=wrap;html=1;aspect=fixed;fillColor=#FCFCAA;" parent="1" vertex="1">
          <mxGeometry x="220" y="372.5" width="80" height="80" as="geometry" />
        </mxCell>
        <mxCell id="U72urnrVb7foCrX-JU2N-97" style="edgeStyle=orthogonalEdgeStyle;rounded=0;orthogonalLoop=1;jettySize=auto;html=1;strokeColor=#fb9b13;strokeWidth=3;" parent="1" source="U72urnrVb7foCrX-JU2N-9" target="Yvo61abbtXtxRw5pMssy-17" edge="1">
          <mxGeometry relative="1" as="geometry">
            <Array as="points">
              <mxPoint x="1396" y="130" />
              <mxPoint x="490" y="130" />
            </Array>
          </mxGeometry>
        </mxCell>
        <mxCell id="U72urnrVb7foCrX-JU2N-9" value="Pago Consultado" style="whiteSpace=wrap;html=1;aspect=fixed;fillColor=#FFC000;" parent="1" vertex="1">
          <mxGeometry x="1356" y="280" width="80" height="80" as="geometry" />
        </mxCell>
        <mxCell id="U72urnrVb7foCrX-JU2N-10" value="Pago" style="whiteSpace=wrap;html=1;aspect=fixed;fillColor=#FFFF00;" parent="1" vertex="1">
          <mxGeometry x="1276" y="280" width="80" height="80" as="geometry" />
        </mxCell>
        <mxCell id="U72urnrVb7foCrX-JU2N-11" value="Consultar&lt;br&gt;Pago" style="whiteSpace=wrap;html=1;aspect=fixed;fillColor=#BDD7EE;" parent="1" vertex="1">
          <mxGeometry x="1196" y="280" width="80" height="80" as="geometry" />
        </mxCell>
        <mxCell id="U72urnrVb7foCrX-JU2N-16" value="Pago Creado" style="whiteSpace=wrap;html=1;aspect=fixed;fillColor=#D6DCE4;" parent="1" vertex="1">
          <mxGeometry x="1436" y="280" width="80" height="80" as="geometry" />
        </mxCell>
        <mxCell id="U72urnrVb7foCrX-JU2N-36" value="Pol-Pago-002:&amp;nbsp;Los datos del nuevo pago deben ser valido a nivel de tipo de dato, longitud, obligatoriedad, formato y rango" style="whiteSpace=wrap;html=1;aspect=fixed;fillColor=#CC99FF;" parent="1" vertex="1">
          <mxGeometry x="500" y="507.5" width="150" height="150" as="geometry" />
        </mxCell>
        <mxCell id="U72urnrVb7foCrX-JU2N-40" value="Pago&lt;br&gt;&amp;nbsp;Consultado" style="whiteSpace=wrap;html=1;aspect=fixed;fillColor=#D6DCE4;" parent="1" vertex="1">
          <mxGeometry x="690" y="277.5" width="80" height="80" as="geometry" />
        </mxCell>
        <mxCell id="U72urnrVb7foCrX-JU2N-42" value="Pol-Pago-004:&amp;nbsp;Si se envía parametros de consulta se deben de ser valido a nivel de tipo de dato, longitud, obligatoriedad, formato, rango" style="whiteSpace=wrap;html=1;aspect=fixed;fillColor=#CC99FF;" parent="1" vertex="1">
          <mxGeometry x="1241" y="360" width="150" height="150" as="geometry" />
        </mxCell>
        <mxCell id="U72urnrVb7foCrX-JU2N-65" style="edgeStyle=orthogonalEdgeStyle;rounded=0;orthogonalLoop=1;jettySize=auto;html=1;curved=1;" parent="1" source="U72urnrVb7foCrX-JU2N-66" edge="1">
          <mxGeometry relative="1" as="geometry">
            <mxPoint x="1196" y="320" as="targetPoint" />
            <Array as="points">
              <mxPoint x="1126" y="190" />
              <mxPoint x="1126" y="320" />
            </Array>
          </mxGeometry>
        </mxCell>
        <mxCell id="U72urnrVb7foCrX-JU2N-66" value="Administrador General" style="whiteSpace=wrap;html=1;aspect=fixed;fillColor=#FCFCAA;" parent="1" vertex="1">
          <mxGeometry x="966" y="187.5" width="80" height="80" as="geometry" />
        </mxCell>
        <mxCell id="U72urnrVb7foCrX-JU2N-67" style="edgeStyle=orthogonalEdgeStyle;rounded=0;orthogonalLoop=1;jettySize=auto;html=1;" parent="1" source="U72urnrVb7foCrX-JU2N-68" edge="1">
          <mxGeometry relative="1" as="geometry">
            <mxPoint x="1196" y="318" as="targetPoint" />
          </mxGeometry>
        </mxCell>
        <mxCell id="U72urnrVb7foCrX-JU2N-68" value="Administrador Spa" style="whiteSpace=wrap;html=1;aspect=fixed;fillColor=#FCFCAA;" parent="1" vertex="1">
          <mxGeometry x="966" y="277.5" width="80" height="80" as="geometry" />
        </mxCell>
        <mxCell id="U72urnrVb7foCrX-JU2N-69" style="edgeStyle=orthogonalEdgeStyle;rounded=0;orthogonalLoop=1;jettySize=auto;html=1;curved=1;" parent="1" source="U72urnrVb7foCrX-JU2N-70" edge="1">
          <mxGeometry relative="1" as="geometry">
            <mxPoint x="1196" y="318" as="targetPoint" />
            <Array as="points">
              <mxPoint x="1126" y="412" />
              <mxPoint x="1126" y="318" />
            </Array>
          </mxGeometry>
        </mxCell>
        <mxCell id="U72urnrVb7foCrX-JU2N-70" value="Lider de Inventario" style="whiteSpace=wrap;html=1;aspect=fixed;fillColor=#FCFCAA;" parent="1" vertex="1">
          <mxGeometry x="966" y="372.5" width="80" height="80" as="geometry" />
        </mxCell>
        <mxCell id="U72urnrVb7foCrX-JU2N-72" style="edgeStyle=orthogonalEdgeStyle;rounded=0;orthogonalLoop=1;jettySize=auto;html=1;curved=1;" parent="1" source="U72urnrVb7foCrX-JU2N-71" target="U72urnrVb7foCrX-JU2N-11" edge="1">
          <mxGeometry relative="1" as="geometry">
            <Array as="points">
              <mxPoint x="1126" y="510" />
              <mxPoint x="1126" y="320" />
            </Array>
          </mxGeometry>
        </mxCell>
        <mxCell id="U72urnrVb7foCrX-JU2N-71" value="Trabajador" style="whiteSpace=wrap;html=1;aspect=fixed;fillColor=#FCFCAA;" parent="1" vertex="1">
          <mxGeometry x="966" y="470" width="80" height="80" as="geometry" />
        </mxCell>
        <mxCell id="U72urnrVb7foCrX-JU2N-93" value="Pol-Pago-003:&amp;nbsp;Debe de exisitir una sucursal a la cual debe estar asociado el pago" style="whiteSpace=wrap;html=1;aspect=fixed;fillColor=#CC99FF;" parent="1" vertex="1">
          <mxGeometry x="500" y="657.5" width="150" height="150" as="geometry" />
        </mxCell>
        <mxCell id="U72urnrVb7foCrX-JU2N-101" value="Pol-Pago-005:&amp;nbsp;El usuario debe estar permitido para consultar" style="whiteSpace=wrap;html=1;aspect=fixed;fillColor=#CC99FF;" parent="1" vertex="1">
          <mxGeometry x="1241" y="510" width="150" height="150" as="geometry" />
        </mxCell>
      </root>
    </mxGraphModel>
  </diagram>
  <diagram name="Factura - Event Storming" id="CeB-271_MRE5wn8Y6erl">
    <mxGraphModel dx="3067" dy="2217" grid="1" gridSize="10" guides="1" tooltips="1" connect="1" arrows="1" fold="1" page="1" pageScale="1" pageWidth="827" pageHeight="1169" math="0" shadow="0">
      <root>
        <mxCell id="p3hYtK72WEkqCXA0yhvl-0" />
        <mxCell id="p3hYtK72WEkqCXA0yhvl-1" parent="p3hYtK72WEkqCXA0yhvl-0" />
        <mxCell id="p3hYtK72WEkqCXA0yhvl-2" value="" style="rounded=1;whiteSpace=wrap;html=1;dashed=1;strokeColor=#fff93d;" parent="p3hYtK72WEkqCXA0yhvl-1" vertex="1">
          <mxGeometry x="-20" y="10" width="1690" height="1490" as="geometry" />
        </mxCell>
        <mxCell id="p3hYtK72WEkqCXA0yhvl-3" value="&lt;font style=&quot;font-size: 36px;&quot;&gt;Factura&lt;/font&gt;" style="text;html=1;align=center;verticalAlign=middle;resizable=0;points=[];autosize=1;strokeColor=none;fillColor=none;fontStyle=1" parent="p3hYtK72WEkqCXA0yhvl-1" vertex="1">
          <mxGeometry x="765" y="30" width="150" height="60" as="geometry" />
        </mxCell>
        <mxCell id="p3hYtK72WEkqCXA0yhvl-4" value="Actor" style="whiteSpace=wrap;html=1;aspect=fixed;fillColor=#FCFCAA;" parent="p3hYtK72WEkqCXA0yhvl-1" vertex="1">
          <mxGeometry x="40" y="-230" width="80" height="80" as="geometry" />
        </mxCell>
        <mxCell id="p3hYtK72WEkqCXA0yhvl-5" value="Comandos" style="whiteSpace=wrap;html=1;aspect=fixed;fillColor=#BDD7EE;" parent="p3hYtK72WEkqCXA0yhvl-1" vertex="1">
          <mxGeometry x="150" y="-230" width="80" height="80" as="geometry" />
        </mxCell>
        <mxCell id="p3hYtK72WEkqCXA0yhvl-6" value="Enttity" style="whiteSpace=wrap;html=1;aspect=fixed;fillColor=#FFFF00;" parent="p3hYtK72WEkqCXA0yhvl-1" vertex="1">
          <mxGeometry x="260" y="-230" width="80" height="80" as="geometry" />
        </mxCell>
        <mxCell id="p3hYtK72WEkqCXA0yhvl-7" value="Real&amp;nbsp; Model" style="whiteSpace=wrap;html=1;aspect=fixed;fillColor=#92D050;" parent="p3hYtK72WEkqCXA0yhvl-1" vertex="1">
          <mxGeometry x="380" y="-230" width="80" height="80" as="geometry" />
        </mxCell>
        <mxCell id="p3hYtK72WEkqCXA0yhvl-8" value="Bussines Rules" style="whiteSpace=wrap;html=1;aspect=fixed;fillColor=#CC99FF;" parent="p3hYtK72WEkqCXA0yhvl-1" vertex="1">
          <mxGeometry x="490" y="-230" width="80" height="80" as="geometry" />
        </mxCell>
        <mxCell id="p3hYtK72WEkqCXA0yhvl-9" value="External System" style="whiteSpace=wrap;html=1;aspect=fixed;fillColor=#FDD3FA;" parent="p3hYtK72WEkqCXA0yhvl-1" vertex="1">
          <mxGeometry x="590" y="-230" width="80" height="80" as="geometry" />
        </mxCell>
        <mxCell id="p3hYtK72WEkqCXA0yhvl-10" value="Event&lt;br&gt;" style="whiteSpace=wrap;html=1;aspect=fixed;fillColor=#FFC000;" parent="p3hYtK72WEkqCXA0yhvl-1" vertex="1">
          <mxGeometry x="790" y="-230" width="80" height="80" as="geometry" />
        </mxCell>
        <mxCell id="p3hYtK72WEkqCXA0yhvl-11" value="Hostpot" style="whiteSpace=wrap;html=1;aspect=fixed;fillColor=#FA90B1;" parent="p3hYtK72WEkqCXA0yhvl-1" vertex="1">
          <mxGeometry x="890" y="-230" width="80" height="80" as="geometry" />
        </mxCell>
        <mxCell id="p3hYtK72WEkqCXA0yhvl-12" value="Eventos Previos" style="whiteSpace=wrap;html=1;aspect=fixed;fillColor=#D6DCE4;" parent="p3hYtK72WEkqCXA0yhvl-1" vertex="1">
          <mxGeometry x="700" y="-230" width="80" height="80" as="geometry" />
        </mxCell>
        <mxCell id="p3hYtK72WEkqCXA0yhvl-13" style="edgeStyle=orthogonalEdgeStyle;rounded=0;orthogonalLoop=1;jettySize=auto;html=1;strokeColor=#f72626;strokeWidth=3;" parent="p3hYtK72WEkqCXA0yhvl-1" source="p3hYtK72WEkqCXA0yhvl-16" target="p3hYtK72WEkqCXA0yhvl-44" edge="1">
          <mxGeometry relative="1" as="geometry">
            <Array as="points">
              <mxPoint x="650" y="180" />
              <mxPoint x="1490" y="180" />
              <mxPoint x="1490" y="1020" />
              <mxPoint x="1070" y="1020" />
            </Array>
          </mxGeometry>
        </mxCell>
        <mxCell id="p3hYtK72WEkqCXA0yhvl-14" style="edgeStyle=orthogonalEdgeStyle;rounded=0;orthogonalLoop=1;jettySize=auto;html=1;strokeColor=#f72626;strokeWidth=3;" parent="p3hYtK72WEkqCXA0yhvl-1" source="p3hYtK72WEkqCXA0yhvl-16" target="p3hYtK72WEkqCXA0yhvl-37" edge="1">
          <mxGeometry relative="1" as="geometry">
            <Array as="points">
              <mxPoint x="650" y="180" />
              <mxPoint x="180" y="180" />
              <mxPoint x="180" y="930" />
              <mxPoint x="490" y="930" />
            </Array>
          </mxGeometry>
        </mxCell>
        <mxCell id="p3hYtK72WEkqCXA0yhvl-15" style="edgeStyle=orthogonalEdgeStyle;rounded=0;orthogonalLoop=1;jettySize=auto;html=1;strokeColor=#f72626;strokeWidth=3;" parent="p3hYtK72WEkqCXA0yhvl-1" source="p3hYtK72WEkqCXA0yhvl-16" target="p3hYtK72WEkqCXA0yhvl-31" edge="1">
          <mxGeometry relative="1" as="geometry">
            <Array as="points">
              <mxPoint x="650" y="180" />
              <mxPoint x="1040" y="180" />
            </Array>
          </mxGeometry>
        </mxCell>
        <mxCell id="p3hYtK72WEkqCXA0yhvl-16" value="Factura&lt;br&gt;&amp;nbsp;Creada" style="whiteSpace=wrap;html=1;aspect=fixed;fillColor=#FFC000;" parent="p3hYtK72WEkqCXA0yhvl-1" vertex="1">
          <mxGeometry x="610" y="277.5" width="80" height="80" as="geometry" />
        </mxCell>
        <mxCell id="p3hYtK72WEkqCXA0yhvl-17" value="Factura" style="whiteSpace=wrap;html=1;aspect=fixed;fillColor=#FFFF00;" parent="p3hYtK72WEkqCXA0yhvl-1" vertex="1">
          <mxGeometry x="530" y="277.5" width="80" height="80" as="geometry" />
        </mxCell>
        <mxCell id="p3hYtK72WEkqCXA0yhvl-18" value="&lt;font style=&quot;font-size: 12px;&quot;&gt;Crear&lt;br&gt;&lt;/font&gt;Factura" style="whiteSpace=wrap;html=1;aspect=fixed;fillColor=#BDD7EE;" parent="p3hYtK72WEkqCXA0yhvl-1" vertex="1">
          <mxGeometry x="450" y="277.5" width="80" height="80" as="geometry" />
        </mxCell>
        <mxCell id="p3hYtK72WEkqCXA0yhvl-19" value="Pol-Factura-001: No debe existir otra factura con el mismo codigo" style="whiteSpace=wrap;html=1;aspect=fixed;fillColor=#CC99FF;" parent="p3hYtK72WEkqCXA0yhvl-1" vertex="1">
          <mxGeometry x="500" y="357.5" width="150" height="150" as="geometry" />
        </mxCell>
        <mxCell id="p3hYtK72WEkqCXA0yhvl-20" style="edgeStyle=orthogonalEdgeStyle;rounded=0;orthogonalLoop=1;jettySize=auto;html=1;curved=1;" parent="p3hYtK72WEkqCXA0yhvl-1" source="p3hYtK72WEkqCXA0yhvl-21" target="p3hYtK72WEkqCXA0yhvl-18" edge="1">
          <mxGeometry relative="1" as="geometry">
            <Array as="points">
              <mxPoint x="380" y="190" />
              <mxPoint x="380" y="320" />
            </Array>
          </mxGeometry>
        </mxCell>
        <mxCell id="p3hYtK72WEkqCXA0yhvl-21" value="Administrador General" style="whiteSpace=wrap;html=1;aspect=fixed;fillColor=#FCFCAA;" parent="p3hYtK72WEkqCXA0yhvl-1" vertex="1">
          <mxGeometry x="220" y="187.5" width="80" height="80" as="geometry" />
        </mxCell>
        <mxCell id="p3hYtK72WEkqCXA0yhvl-22" style="edgeStyle=orthogonalEdgeStyle;rounded=0;orthogonalLoop=1;jettySize=auto;html=1;" parent="p3hYtK72WEkqCXA0yhvl-1" source="p3hYtK72WEkqCXA0yhvl-23" target="p3hYtK72WEkqCXA0yhvl-18" edge="1">
          <mxGeometry relative="1" as="geometry" />
        </mxCell>
        <mxCell id="p3hYtK72WEkqCXA0yhvl-23" value="Administrador Spa" style="whiteSpace=wrap;html=1;aspect=fixed;fillColor=#FCFCAA;" parent="p3hYtK72WEkqCXA0yhvl-1" vertex="1">
          <mxGeometry x="220" y="277.5" width="80" height="80" as="geometry" />
        </mxCell>
        <mxCell id="p3hYtK72WEkqCXA0yhvl-24" style="edgeStyle=orthogonalEdgeStyle;rounded=0;orthogonalLoop=1;jettySize=auto;html=1;curved=1;" parent="p3hYtK72WEkqCXA0yhvl-1" source="p3hYtK72WEkqCXA0yhvl-25" target="p3hYtK72WEkqCXA0yhvl-18" edge="1">
          <mxGeometry relative="1" as="geometry">
            <Array as="points">
              <mxPoint x="380" y="412" />
              <mxPoint x="380" y="318" />
            </Array>
          </mxGeometry>
        </mxCell>
        <mxCell id="p3hYtK72WEkqCXA0yhvl-25" value="Lider de Inventario" style="whiteSpace=wrap;html=1;aspect=fixed;fillColor=#FCFCAA;" parent="p3hYtK72WEkqCXA0yhvl-1" vertex="1">
          <mxGeometry x="220" y="372.5" width="80" height="80" as="geometry" />
        </mxCell>
        <mxCell id="p3hYtK72WEkqCXA0yhvl-26" value="Factura&lt;br&gt;&amp;nbsp;Eliminada" style="whiteSpace=wrap;html=1;aspect=fixed;fillColor=#D6DCE4;" parent="p3hYtK72WEkqCXA0yhvl-1" vertex="1">
          <mxGeometry x="690" y="277.5" width="80" height="80" as="geometry" />
        </mxCell>
        <mxCell id="p3hYtK72WEkqCXA0yhvl-27" style="edgeStyle=orthogonalEdgeStyle;rounded=0;orthogonalLoop=1;jettySize=auto;html=1;strokeWidth=3;strokeColor=#41ff33;" parent="p3hYtK72WEkqCXA0yhvl-1" source="p3hYtK72WEkqCXA0yhvl-29" target="p3hYtK72WEkqCXA0yhvl-37" edge="1">
          <mxGeometry relative="1" as="geometry">
            <Array as="points">
              <mxPoint x="1240" y="1000" />
              <mxPoint x="510" y="1000" />
            </Array>
          </mxGeometry>
        </mxCell>
        <mxCell id="p3hYtK72WEkqCXA0yhvl-28" style="edgeStyle=orthogonalEdgeStyle;rounded=0;orthogonalLoop=1;jettySize=auto;html=1;strokeWidth=3;strokeColor=#41ff33;" parent="p3hYtK72WEkqCXA0yhvl-1" source="p3hYtK72WEkqCXA0yhvl-29" target="p3hYtK72WEkqCXA0yhvl-44" edge="1">
          <mxGeometry relative="1" as="geometry">
            <Array as="points">
              <mxPoint x="1240" y="1000" />
              <mxPoint x="1070" y="1000" />
            </Array>
          </mxGeometry>
        </mxCell>
        <mxCell id="p3hYtK72WEkqCXA0yhvl-29" value="Factura Modificada" style="whiteSpace=wrap;html=1;aspect=fixed;fillColor=#FFC000;" parent="p3hYtK72WEkqCXA0yhvl-1" vertex="1">
          <mxGeometry x="1180" y="287.5" width="80" height="80" as="geometry" />
        </mxCell>
        <mxCell id="p3hYtK72WEkqCXA0yhvl-30" value="Factura" style="whiteSpace=wrap;html=1;aspect=fixed;fillColor=#FFFF00;" parent="p3hYtK72WEkqCXA0yhvl-1" vertex="1">
          <mxGeometry x="1100" y="287.5" width="80" height="80" as="geometry" />
        </mxCell>
        <mxCell id="p3hYtK72WEkqCXA0yhvl-31" value="Modificar&lt;br&gt;Factura" style="whiteSpace=wrap;html=1;aspect=fixed;fillColor=#BDD7EE;" parent="p3hYtK72WEkqCXA0yhvl-1" vertex="1">
          <mxGeometry x="1020" y="287.5" width="80" height="80" as="geometry" />
        </mxCell>
        <mxCell id="p3hYtK72WEkqCXA0yhvl-32" value="Factura Consultada" style="whiteSpace=wrap;html=1;aspect=fixed;fillColor=#D6DCE4;" parent="p3hYtK72WEkqCXA0yhvl-1" vertex="1">
          <mxGeometry x="1260" y="287.5" width="80" height="80" as="geometry" />
        </mxCell>
        <mxCell id="p3hYtK72WEkqCXA0yhvl-33" style="edgeStyle=orthogonalEdgeStyle;rounded=0;orthogonalLoop=1;jettySize=auto;html=1;strokeColor=#2213fb;strokeWidth=3;" parent="p3hYtK72WEkqCXA0yhvl-1" source="p3hYtK72WEkqCXA0yhvl-35" target="p3hYtK72WEkqCXA0yhvl-18" edge="1">
          <mxGeometry relative="1" as="geometry">
            <Array as="points">
              <mxPoint x="670" y="910" />
              <mxPoint x="120" y="910" />
              <mxPoint x="120" y="130" />
              <mxPoint x="490" y="130" />
            </Array>
          </mxGeometry>
        </mxCell>
        <mxCell id="p3hYtK72WEkqCXA0yhvl-34" style="edgeStyle=orthogonalEdgeStyle;rounded=0;orthogonalLoop=1;jettySize=auto;html=1;strokeColor=#2213fb;strokeWidth=3;" parent="p3hYtK72WEkqCXA0yhvl-1" source="p3hYtK72WEkqCXA0yhvl-35" target="p3hYtK72WEkqCXA0yhvl-31" edge="1">
          <mxGeometry relative="1" as="geometry">
            <Array as="points">
              <mxPoint x="670" y="910" />
              <mxPoint x="1030" y="910" />
            </Array>
          </mxGeometry>
        </mxCell>
        <mxCell id="p3hYtK72WEkqCXA0yhvl-35" value="Factura Consultada" style="whiteSpace=wrap;html=1;aspect=fixed;fillColor=#FFC000;" parent="p3hYtK72WEkqCXA0yhvl-1" vertex="1">
          <mxGeometry x="630" y="1100" width="80" height="80" as="geometry" />
        </mxCell>
        <mxCell id="p3hYtK72WEkqCXA0yhvl-36" value="Factura" style="whiteSpace=wrap;html=1;aspect=fixed;fillColor=#FFFF00;" parent="p3hYtK72WEkqCXA0yhvl-1" vertex="1">
          <mxGeometry x="550" y="1100" width="80" height="80" as="geometry" />
        </mxCell>
        <mxCell id="p3hYtK72WEkqCXA0yhvl-37" value="Consultar&lt;br&gt;Factura" style="whiteSpace=wrap;html=1;aspect=fixed;fillColor=#BDD7EE;" parent="p3hYtK72WEkqCXA0yhvl-1" vertex="1">
          <mxGeometry x="470" y="1100" width="80" height="80" as="geometry" />
        </mxCell>
        <mxCell id="p3hYtK72WEkqCXA0yhvl-38" value="Factura Creada" style="whiteSpace=wrap;html=1;aspect=fixed;fillColor=#D6DCE4;" parent="p3hYtK72WEkqCXA0yhvl-1" vertex="1">
          <mxGeometry x="710" y="1100" width="80" height="80" as="geometry" />
        </mxCell>
        <mxCell id="p3hYtK72WEkqCXA0yhvl-39" style="edgeStyle=orthogonalEdgeStyle;rounded=0;orthogonalLoop=1;jettySize=auto;html=1;strokeColor=#fff93d;strokeWidth=3;" parent="p3hYtK72WEkqCXA0yhvl-1" source="p3hYtK72WEkqCXA0yhvl-42" target="p3hYtK72WEkqCXA0yhvl-18" edge="1">
          <mxGeometry relative="1" as="geometry">
            <Array as="points">
              <mxPoint x="1230" y="930" />
              <mxPoint x="1550" y="930" />
              <mxPoint x="1550" y="130" />
              <mxPoint x="490" y="130" />
            </Array>
          </mxGeometry>
        </mxCell>
        <mxCell id="p3hYtK72WEkqCXA0yhvl-40" style="edgeStyle=orthogonalEdgeStyle;rounded=0;orthogonalLoop=1;jettySize=auto;html=1;strokeColor=#fff93d;strokeWidth=3;" parent="p3hYtK72WEkqCXA0yhvl-1" source="p3hYtK72WEkqCXA0yhvl-42" target="p3hYtK72WEkqCXA0yhvl-37" edge="1">
          <mxGeometry relative="1" as="geometry">
            <Array as="points">
              <mxPoint x="1230" y="930" />
              <mxPoint x="510" y="930" />
            </Array>
          </mxGeometry>
        </mxCell>
        <mxCell id="p3hYtK72WEkqCXA0yhvl-41" style="edgeStyle=orthogonalEdgeStyle;rounded=0;orthogonalLoop=1;jettySize=auto;html=1;entryX=0.5;entryY=0;entryDx=0;entryDy=0;strokeColor=#fff93d;strokeWidth=3;" parent="p3hYtK72WEkqCXA0yhvl-1" source="p3hYtK72WEkqCXA0yhvl-42" target="p3hYtK72WEkqCXA0yhvl-31" edge="1">
          <mxGeometry relative="1" as="geometry">
            <Array as="points">
              <mxPoint x="1230" y="930" />
              <mxPoint x="1550" y="930" />
              <mxPoint x="1550" y="130" />
              <mxPoint x="1060" y="130" />
            </Array>
          </mxGeometry>
        </mxCell>
        <mxCell id="p3hYtK72WEkqCXA0yhvl-42" value="Factura Eliminada" style="whiteSpace=wrap;html=1;aspect=fixed;fillColor=#FFC000;" parent="p3hYtK72WEkqCXA0yhvl-1" vertex="1">
          <mxGeometry x="1190" y="1100" width="80" height="80" as="geometry" />
        </mxCell>
        <mxCell id="p3hYtK72WEkqCXA0yhvl-43" value="Factura" style="whiteSpace=wrap;html=1;aspect=fixed;fillColor=#FFFF00;" parent="p3hYtK72WEkqCXA0yhvl-1" vertex="1">
          <mxGeometry x="1110" y="1100" width="80" height="80" as="geometry" />
        </mxCell>
        <mxCell id="p3hYtK72WEkqCXA0yhvl-44" value="Eliminar&lt;br style=&quot;border-color: var(--border-color);&quot;&gt;CitaReserva" style="whiteSpace=wrap;html=1;aspect=fixed;fillColor=#BDD7EE;" parent="p3hYtK72WEkqCXA0yhvl-1" vertex="1">
          <mxGeometry x="1030" y="1100" width="80" height="80" as="geometry" />
        </mxCell>
        <mxCell id="p3hYtK72WEkqCXA0yhvl-45" value="Factura Creada" style="whiteSpace=wrap;html=1;aspect=fixed;fillColor=#D6DCE4;" parent="p3hYtK72WEkqCXA0yhvl-1" vertex="1">
          <mxGeometry x="1270" y="1100" width="80" height="80" as="geometry" />
        </mxCell>
        <mxCell id="p3hYtK72WEkqCXA0yhvl-46" value="Pol-Factura-002:&amp;nbsp;Los datos de la nueva factura deben ser valido a nivel de tipo de dato, longitud, obligatoriedad, formato y rango" style="whiteSpace=wrap;html=1;aspect=fixed;fillColor=#CC99FF;" parent="p3hYtK72WEkqCXA0yhvl-1" vertex="1">
          <mxGeometry x="500" y="507.5" width="150" height="150" as="geometry" />
        </mxCell>
        <mxCell id="p3hYtK72WEkqCXA0yhvl-47" value="Factura Creada" style="whiteSpace=wrap;html=1;aspect=fixed;fillColor=#D6DCE4;" parent="p3hYtK72WEkqCXA0yhvl-1" vertex="1">
          <mxGeometry x="1260" y="367.5" width="80" height="80" as="geometry" />
        </mxCell>
        <mxCell id="p3hYtK72WEkqCXA0yhvl-48" value="Factura Consultada" style="whiteSpace=wrap;html=1;aspect=fixed;fillColor=#D6DCE4;" parent="p3hYtK72WEkqCXA0yhvl-1" vertex="1">
          <mxGeometry x="1270" y="1180" width="80" height="80" as="geometry" />
        </mxCell>
        <mxCell id="p3hYtK72WEkqCXA0yhvl-49" value="Factura Modificada" style="whiteSpace=wrap;html=1;aspect=fixed;fillColor=#D6DCE4;" parent="p3hYtK72WEkqCXA0yhvl-1" vertex="1">
          <mxGeometry x="1270" y="1260" width="80" height="80" as="geometry" />
        </mxCell>
        <mxCell id="p3hYtK72WEkqCXA0yhvl-50" value="Factura&lt;br&gt;&amp;nbsp;Consultada" style="whiteSpace=wrap;html=1;aspect=fixed;fillColor=#D6DCE4;" parent="p3hYtK72WEkqCXA0yhvl-1" vertex="1">
          <mxGeometry x="690" y="357.5" width="80" height="80" as="geometry" />
        </mxCell>
        <mxCell id="p3hYtK72WEkqCXA0yhvl-51" value="Factura Modificado" style="whiteSpace=wrap;html=1;aspect=fixed;fillColor=#D6DCE4;" parent="p3hYtK72WEkqCXA0yhvl-1" vertex="1">
          <mxGeometry x="710" y="1180" width="80" height="80" as="geometry" />
        </mxCell>
        <mxCell id="p3hYtK72WEkqCXA0yhvl-52" value="Pol-Factura-004:&amp;nbsp;Si se envía parametros de consulta se deben de ser valido a nivel de tipo de dato, longitud, obligatoriedad, formato y rango" style="whiteSpace=wrap;html=1;aspect=fixed;fillColor=#CC99FF;" parent="p3hYtK72WEkqCXA0yhvl-1" vertex="1">
          <mxGeometry x="515" y="1180" width="150" height="150" as="geometry" />
        </mxCell>
        <mxCell id="p3hYtK72WEkqCXA0yhvl-53" value="Pol-Factura-005:&amp;nbsp;No debe existir otra factura, a excepcion de que sea la misma factura que se esta modificando" style="whiteSpace=wrap;html=1;aspect=fixed;fillColor=#CC99FF;" parent="p3hYtK72WEkqCXA0yhvl-1" vertex="1">
          <mxGeometry x="1065" y="367.5" width="150" height="150" as="geometry" />
        </mxCell>
        <mxCell id="p3hYtK72WEkqCXA0yhvl-54" value="Pol-Factura-006:&amp;nbsp;Debe existir la factura que se esta modificando" style="whiteSpace=wrap;html=1;aspect=fixed;fillColor=#CC99FF;" parent="p3hYtK72WEkqCXA0yhvl-1" vertex="1">
          <mxGeometry x="1065" y="667.5" width="150" height="150" as="geometry" />
        </mxCell>
        <mxCell id="p3hYtK72WEkqCXA0yhvl-55" value="Pol-Factura-002:&amp;nbsp;Los datos de la nueva factura deben ser valido a nivel de tipo de dato, longitud, obligatoriedad, formato y rango" style="whiteSpace=wrap;html=1;aspect=fixed;fillColor=#CC99FF;" parent="p3hYtK72WEkqCXA0yhvl-1" vertex="1">
          <mxGeometry x="1065" y="517.5" width="152.5" height="152.5" as="geometry" />
        </mxCell>
        <mxCell id="p3hYtK72WEkqCXA0yhvl-56" style="edgeStyle=orthogonalEdgeStyle;rounded=0;orthogonalLoop=1;jettySize=auto;html=1;curved=1;" parent="p3hYtK72WEkqCXA0yhvl-1" source="p3hYtK72WEkqCXA0yhvl-57" edge="1">
          <mxGeometry relative="1" as="geometry">
            <mxPoint x="1015" y="330" as="targetPoint" />
            <Array as="points">
              <mxPoint x="945" y="200" />
              <mxPoint x="945" y="330" />
            </Array>
          </mxGeometry>
        </mxCell>
        <mxCell id="p3hYtK72WEkqCXA0yhvl-57" value="Administrador General" style="whiteSpace=wrap;html=1;aspect=fixed;fillColor=#FCFCAA;" parent="p3hYtK72WEkqCXA0yhvl-1" vertex="1">
          <mxGeometry x="785" y="197.5" width="80" height="80" as="geometry" />
        </mxCell>
        <mxCell id="p3hYtK72WEkqCXA0yhvl-58" style="edgeStyle=orthogonalEdgeStyle;rounded=0;orthogonalLoop=1;jettySize=auto;html=1;" parent="p3hYtK72WEkqCXA0yhvl-1" source="p3hYtK72WEkqCXA0yhvl-59" edge="1">
          <mxGeometry relative="1" as="geometry">
            <mxPoint x="1015" y="328" as="targetPoint" />
          </mxGeometry>
        </mxCell>
        <mxCell id="p3hYtK72WEkqCXA0yhvl-59" value="Administrador Spa" style="whiteSpace=wrap;html=1;aspect=fixed;fillColor=#FCFCAA;" parent="p3hYtK72WEkqCXA0yhvl-1" vertex="1">
          <mxGeometry x="785" y="287.5" width="80" height="80" as="geometry" />
        </mxCell>
        <mxCell id="p3hYtK72WEkqCXA0yhvl-60" style="edgeStyle=orthogonalEdgeStyle;rounded=0;orthogonalLoop=1;jettySize=auto;html=1;curved=1;" parent="p3hYtK72WEkqCXA0yhvl-1" source="p3hYtK72WEkqCXA0yhvl-61" edge="1">
          <mxGeometry relative="1" as="geometry">
            <mxPoint x="1015" y="328" as="targetPoint" />
            <Array as="points">
              <mxPoint x="945" y="422" />
              <mxPoint x="945" y="328" />
            </Array>
          </mxGeometry>
        </mxCell>
        <mxCell id="p3hYtK72WEkqCXA0yhvl-61" value="Lider de Inventario" style="whiteSpace=wrap;html=1;aspect=fixed;fillColor=#FCFCAA;" parent="p3hYtK72WEkqCXA0yhvl-1" vertex="1">
          <mxGeometry x="785" y="382.5" width="80" height="80" as="geometry" />
        </mxCell>
        <mxCell id="p3hYtK72WEkqCXA0yhvl-62" value="Pol-Factura-007:&amp;nbsp;Que la factura exista y no este pagada" style="whiteSpace=wrap;html=1;aspect=fixed;fillColor=#CC99FF;" parent="p3hYtK72WEkqCXA0yhvl-1" vertex="1">
          <mxGeometry x="1075" y="1180" width="150" height="150" as="geometry" />
        </mxCell>
        <mxCell id="p3hYtK72WEkqCXA0yhvl-63" style="edgeStyle=orthogonalEdgeStyle;rounded=0;orthogonalLoop=1;jettySize=auto;html=1;curved=1;" parent="p3hYtK72WEkqCXA0yhvl-1" source="p3hYtK72WEkqCXA0yhvl-64" edge="1">
          <mxGeometry relative="1" as="geometry">
            <mxPoint x="470" y="1140" as="targetPoint" />
            <Array as="points">
              <mxPoint x="400" y="1010" />
              <mxPoint x="400" y="1140" />
            </Array>
          </mxGeometry>
        </mxCell>
        <mxCell id="p3hYtK72WEkqCXA0yhvl-64" value="Administrador General" style="whiteSpace=wrap;html=1;aspect=fixed;fillColor=#FCFCAA;" parent="p3hYtK72WEkqCXA0yhvl-1" vertex="1">
          <mxGeometry x="240" y="1007.5" width="80" height="80" as="geometry" />
        </mxCell>
        <mxCell id="p3hYtK72WEkqCXA0yhvl-65" style="edgeStyle=orthogonalEdgeStyle;rounded=0;orthogonalLoop=1;jettySize=auto;html=1;" parent="p3hYtK72WEkqCXA0yhvl-1" source="p3hYtK72WEkqCXA0yhvl-66" edge="1">
          <mxGeometry relative="1" as="geometry">
            <mxPoint x="470" y="1138" as="targetPoint" />
          </mxGeometry>
        </mxCell>
        <mxCell id="p3hYtK72WEkqCXA0yhvl-66" value="Administrador Spa" style="whiteSpace=wrap;html=1;aspect=fixed;fillColor=#FCFCAA;" parent="p3hYtK72WEkqCXA0yhvl-1" vertex="1">
          <mxGeometry x="240" y="1097.5" width="80" height="80" as="geometry" />
        </mxCell>
        <mxCell id="p3hYtK72WEkqCXA0yhvl-67" style="edgeStyle=orthogonalEdgeStyle;rounded=0;orthogonalLoop=1;jettySize=auto;html=1;curved=1;" parent="p3hYtK72WEkqCXA0yhvl-1" source="p3hYtK72WEkqCXA0yhvl-68" edge="1">
          <mxGeometry relative="1" as="geometry">
            <mxPoint x="470" y="1138" as="targetPoint" />
            <Array as="points">
              <mxPoint x="400" y="1232" />
              <mxPoint x="400" y="1138" />
            </Array>
          </mxGeometry>
        </mxCell>
        <mxCell id="p3hYtK72WEkqCXA0yhvl-68" value="Lider de Inventario" style="whiteSpace=wrap;html=1;aspect=fixed;fillColor=#FCFCAA;" parent="p3hYtK72WEkqCXA0yhvl-1" vertex="1">
          <mxGeometry x="240" y="1192.5" width="80" height="80" as="geometry" />
        </mxCell>
        <mxCell id="p3hYtK72WEkqCXA0yhvl-69" style="edgeStyle=orthogonalEdgeStyle;rounded=0;orthogonalLoop=1;jettySize=auto;html=1;curved=1;" parent="p3hYtK72WEkqCXA0yhvl-1" source="p3hYtK72WEkqCXA0yhvl-70" target="p3hYtK72WEkqCXA0yhvl-37" edge="1">
          <mxGeometry relative="1" as="geometry">
            <Array as="points">
              <mxPoint x="400" y="1330" />
              <mxPoint x="400" y="1140" />
            </Array>
          </mxGeometry>
        </mxCell>
        <mxCell id="p3hYtK72WEkqCXA0yhvl-70" value="Trabajador" style="whiteSpace=wrap;html=1;aspect=fixed;fillColor=#FCFCAA;" parent="p3hYtK72WEkqCXA0yhvl-1" vertex="1">
          <mxGeometry x="240" y="1290" width="80" height="80" as="geometry" />
        </mxCell>
        <mxCell id="p3hYtK72WEkqCXA0yhvl-71" style="edgeStyle=orthogonalEdgeStyle;rounded=0;orthogonalLoop=1;jettySize=auto;html=1;curved=1;" parent="p3hYtK72WEkqCXA0yhvl-1" source="p3hYtK72WEkqCXA0yhvl-72" edge="1">
          <mxGeometry relative="1" as="geometry">
            <mxPoint x="1030" y="1137.5" as="targetPoint" />
            <Array as="points">
              <mxPoint x="960" y="1007.5" />
              <mxPoint x="960" y="1137.5" />
            </Array>
          </mxGeometry>
        </mxCell>
        <mxCell id="p3hYtK72WEkqCXA0yhvl-72" value="Administrador General" style="whiteSpace=wrap;html=1;aspect=fixed;fillColor=#FCFCAA;" parent="p3hYtK72WEkqCXA0yhvl-1" vertex="1">
          <mxGeometry x="800" y="1005" width="80" height="80" as="geometry" />
        </mxCell>
        <mxCell id="p3hYtK72WEkqCXA0yhvl-73" style="edgeStyle=orthogonalEdgeStyle;rounded=0;orthogonalLoop=1;jettySize=auto;html=1;" parent="p3hYtK72WEkqCXA0yhvl-1" source="p3hYtK72WEkqCXA0yhvl-74" edge="1">
          <mxGeometry relative="1" as="geometry">
            <mxPoint x="1030" y="1135.5" as="targetPoint" />
          </mxGeometry>
        </mxCell>
        <mxCell id="p3hYtK72WEkqCXA0yhvl-74" value="Administrador Spa" style="whiteSpace=wrap;html=1;aspect=fixed;fillColor=#FCFCAA;" parent="p3hYtK72WEkqCXA0yhvl-1" vertex="1">
          <mxGeometry x="800" y="1095" width="80" height="80" as="geometry" />
        </mxCell>
        <mxCell id="p3hYtK72WEkqCXA0yhvl-75" style="edgeStyle=orthogonalEdgeStyle;rounded=0;orthogonalLoop=1;jettySize=auto;html=1;curved=1;" parent="p3hYtK72WEkqCXA0yhvl-1" source="p3hYtK72WEkqCXA0yhvl-76" edge="1">
          <mxGeometry relative="1" as="geometry">
            <mxPoint x="1030" y="1135.5" as="targetPoint" />
            <Array as="points">
              <mxPoint x="960" y="1229.5" />
              <mxPoint x="960" y="1135.5" />
            </Array>
          </mxGeometry>
        </mxCell>
        <mxCell id="p3hYtK72WEkqCXA0yhvl-76" value="Lider de Inventario" style="whiteSpace=wrap;html=1;aspect=fixed;fillColor=#FCFCAA;" parent="p3hYtK72WEkqCXA0yhvl-1" vertex="1">
          <mxGeometry x="800" y="1190" width="80" height="80" as="geometry" />
        </mxCell>
        <mxCell id="p3hYtK72WEkqCXA0yhvl-77" value="Pol-Factura-003:&amp;nbsp;Debe de exisitir una reserva a la cual debe estar asociada la factura" style="whiteSpace=wrap;html=1;aspect=fixed;fillColor=#CC99FF;" parent="p3hYtK72WEkqCXA0yhvl-1" vertex="1">
          <mxGeometry x="500" y="657.5" width="150" height="150" as="geometry" />
        </mxCell>
        <mxCell id="p3hYtK72WEkqCXA0yhvl-78" value="Pol-Factura-008:&amp;nbsp;El usuario debe estar permitido para consultar" style="whiteSpace=wrap;html=1;aspect=fixed;fillColor=#CC99FF;" parent="p3hYtK72WEkqCXA0yhvl-1" vertex="1">
          <mxGeometry x="515" y="1330" width="150" height="150" as="geometry" />
        </mxCell>
        <mxCell id="p3hYtK72WEkqCXA0yhvl-79" value="Factura Eliminada" style="whiteSpace=wrap;html=1;aspect=fixed;fillColor=#D6DCE4;" parent="p3hYtK72WEkqCXA0yhvl-1" vertex="1">
          <mxGeometry x="710" y="1260" width="80" height="80" as="geometry" />
        </mxCell>
      </root>
    </mxGraphModel>
  </diagram>
  <diagram name="TipoPago - Event Storming" id="ZUcvZJ5-PxglcxbOhly8">
    <mxGraphModel dx="2159" dy="1693" grid="1" gridSize="10" guides="1" tooltips="1" connect="1" arrows="1" fold="1" page="1" pageScale="1" pageWidth="827" pageHeight="1169" math="0" shadow="0">
      <root>
        <mxCell id="k1vFS3CNRWPC7cyn7dj1-0" />
        <mxCell id="k1vFS3CNRWPC7cyn7dj1-1" parent="k1vFS3CNRWPC7cyn7dj1-0" />
        <mxCell id="k1vFS3CNRWPC7cyn7dj1-2" value="" style="rounded=1;whiteSpace=wrap;html=1;dashed=1;strokeColor=#fff93d;" parent="k1vFS3CNRWPC7cyn7dj1-1" vertex="1">
          <mxGeometry x="-20" y="10" width="1690" height="1490" as="geometry" />
        </mxCell>
        <mxCell id="k1vFS3CNRWPC7cyn7dj1-3" value="&lt;font style=&quot;font-size: 36px;&quot;&gt;TipoPago&lt;/font&gt;" style="text;html=1;align=center;verticalAlign=middle;resizable=0;points=[];autosize=1;strokeColor=none;fillColor=none;fontStyle=1" parent="k1vFS3CNRWPC7cyn7dj1-1" vertex="1">
          <mxGeometry x="690" y="30" width="300" height="60" as="geometry" />
        </mxCell>
        <mxCell id="k1vFS3CNRWPC7cyn7dj1-4" value="Actor" style="whiteSpace=wrap;html=1;aspect=fixed;fillColor=#FCFCAA;" parent="k1vFS3CNRWPC7cyn7dj1-1" vertex="1">
          <mxGeometry x="40" y="-230" width="80" height="80" as="geometry" />
        </mxCell>
        <mxCell id="k1vFS3CNRWPC7cyn7dj1-5" value="Comandos" style="whiteSpace=wrap;html=1;aspect=fixed;fillColor=#BDD7EE;" parent="k1vFS3CNRWPC7cyn7dj1-1" vertex="1">
          <mxGeometry x="150" y="-230" width="80" height="80" as="geometry" />
        </mxCell>
        <mxCell id="k1vFS3CNRWPC7cyn7dj1-6" value="Enttity" style="whiteSpace=wrap;html=1;aspect=fixed;fillColor=#FFFF00;" parent="k1vFS3CNRWPC7cyn7dj1-1" vertex="1">
          <mxGeometry x="260" y="-230" width="80" height="80" as="geometry" />
        </mxCell>
        <mxCell id="k1vFS3CNRWPC7cyn7dj1-7" value="Real&amp;nbsp; Model" style="whiteSpace=wrap;html=1;aspect=fixed;fillColor=#92D050;" parent="k1vFS3CNRWPC7cyn7dj1-1" vertex="1">
          <mxGeometry x="380" y="-230" width="80" height="80" as="geometry" />
        </mxCell>
        <mxCell id="k1vFS3CNRWPC7cyn7dj1-8" value="Bussines Rules" style="whiteSpace=wrap;html=1;aspect=fixed;fillColor=#CC99FF;" parent="k1vFS3CNRWPC7cyn7dj1-1" vertex="1">
          <mxGeometry x="490" y="-230" width="80" height="80" as="geometry" />
        </mxCell>
        <mxCell id="k1vFS3CNRWPC7cyn7dj1-9" value="External System" style="whiteSpace=wrap;html=1;aspect=fixed;fillColor=#FDD3FA;" parent="k1vFS3CNRWPC7cyn7dj1-1" vertex="1">
          <mxGeometry x="590" y="-230" width="80" height="80" as="geometry" />
        </mxCell>
        <mxCell id="k1vFS3CNRWPC7cyn7dj1-10" value="Event&lt;br&gt;" style="whiteSpace=wrap;html=1;aspect=fixed;fillColor=#FFC000;" parent="k1vFS3CNRWPC7cyn7dj1-1" vertex="1">
          <mxGeometry x="790" y="-230" width="80" height="80" as="geometry" />
        </mxCell>
        <mxCell id="k1vFS3CNRWPC7cyn7dj1-11" value="Hostpot" style="whiteSpace=wrap;html=1;aspect=fixed;fillColor=#FA90B1;" parent="k1vFS3CNRWPC7cyn7dj1-1" vertex="1">
          <mxGeometry x="890" y="-230" width="80" height="80" as="geometry" />
        </mxCell>
        <mxCell id="k1vFS3CNRWPC7cyn7dj1-12" value="Eventos Previos" style="whiteSpace=wrap;html=1;aspect=fixed;fillColor=#D6DCE4;" parent="k1vFS3CNRWPC7cyn7dj1-1" vertex="1">
          <mxGeometry x="700" y="-230" width="80" height="80" as="geometry" />
        </mxCell>
        <mxCell id="k1vFS3CNRWPC7cyn7dj1-13" style="edgeStyle=orthogonalEdgeStyle;rounded=0;orthogonalLoop=1;jettySize=auto;html=1;strokeColor=#f72626;strokeWidth=3;" parent="k1vFS3CNRWPC7cyn7dj1-1" source="k1vFS3CNRWPC7cyn7dj1-16" target="k1vFS3CNRWPC7cyn7dj1-44" edge="1">
          <mxGeometry relative="1" as="geometry">
            <Array as="points">
              <mxPoint x="650" y="180" />
              <mxPoint x="1490" y="180" />
              <mxPoint x="1490" y="1020" />
              <mxPoint x="1070" y="1020" />
            </Array>
          </mxGeometry>
        </mxCell>
        <mxCell id="k1vFS3CNRWPC7cyn7dj1-14" style="edgeStyle=orthogonalEdgeStyle;rounded=0;orthogonalLoop=1;jettySize=auto;html=1;strokeColor=#f72626;strokeWidth=3;" parent="k1vFS3CNRWPC7cyn7dj1-1" source="k1vFS3CNRWPC7cyn7dj1-16" target="k1vFS3CNRWPC7cyn7dj1-37" edge="1">
          <mxGeometry relative="1" as="geometry">
            <Array as="points">
              <mxPoint x="650" y="180" />
              <mxPoint x="180" y="180" />
              <mxPoint x="180" y="930" />
              <mxPoint x="490" y="930" />
            </Array>
          </mxGeometry>
        </mxCell>
        <mxCell id="k1vFS3CNRWPC7cyn7dj1-15" style="edgeStyle=orthogonalEdgeStyle;rounded=0;orthogonalLoop=1;jettySize=auto;html=1;strokeColor=#f72626;strokeWidth=3;" parent="k1vFS3CNRWPC7cyn7dj1-1" source="k1vFS3CNRWPC7cyn7dj1-16" target="k1vFS3CNRWPC7cyn7dj1-31" edge="1">
          <mxGeometry relative="1" as="geometry">
            <Array as="points">
              <mxPoint x="650" y="180" />
              <mxPoint x="1040" y="180" />
            </Array>
          </mxGeometry>
        </mxCell>
        <mxCell id="k1vFS3CNRWPC7cyn7dj1-16" value="&lt;font style=&quot;font-size: 11px;&quot;&gt;TipoPago&lt;/font&gt;&lt;br&gt;&amp;nbsp;Creado" style="whiteSpace=wrap;html=1;aspect=fixed;fillColor=#FFC000;" parent="k1vFS3CNRWPC7cyn7dj1-1" vertex="1">
          <mxGeometry x="610" y="277.5" width="80" height="80" as="geometry" />
        </mxCell>
        <mxCell id="k1vFS3CNRWPC7cyn7dj1-17" value="&lt;font style=&quot;font-size: 11px;&quot;&gt;TipoPago&lt;/font&gt;" style="whiteSpace=wrap;html=1;aspect=fixed;fillColor=#FFFF00;" parent="k1vFS3CNRWPC7cyn7dj1-1" vertex="1">
          <mxGeometry x="530" y="277.5" width="80" height="80" as="geometry" />
        </mxCell>
        <mxCell id="k1vFS3CNRWPC7cyn7dj1-18" value="&lt;font style=&quot;font-size: 12px;&quot;&gt;Crear&lt;br&gt;&lt;/font&gt;&lt;font style=&quot;font-size: 11px;&quot;&gt;TipoPago&lt;/font&gt;" style="whiteSpace=wrap;html=1;aspect=fixed;fillColor=#BDD7EE;" parent="k1vFS3CNRWPC7cyn7dj1-1" vertex="1">
          <mxGeometry x="450" y="277.5" width="80" height="80" as="geometry" />
        </mxCell>
        <mxCell id="k1vFS3CNRWPC7cyn7dj1-19" value="Pol-TipoPago-001:&amp;nbsp;No debe existir otro tipo de pago con el mismo nombre" style="whiteSpace=wrap;html=1;aspect=fixed;fillColor=#CC99FF;" parent="k1vFS3CNRWPC7cyn7dj1-1" vertex="1">
          <mxGeometry x="500" y="357.5" width="150" height="150" as="geometry" />
        </mxCell>
        <mxCell id="k1vFS3CNRWPC7cyn7dj1-20" style="edgeStyle=orthogonalEdgeStyle;rounded=0;orthogonalLoop=1;jettySize=auto;html=1;curved=1;" parent="k1vFS3CNRWPC7cyn7dj1-1" source="k1vFS3CNRWPC7cyn7dj1-21" target="k1vFS3CNRWPC7cyn7dj1-18" edge="1">
          <mxGeometry relative="1" as="geometry">
            <Array as="points">
              <mxPoint x="380" y="190" />
              <mxPoint x="380" y="320" />
            </Array>
          </mxGeometry>
        </mxCell>
        <mxCell id="k1vFS3CNRWPC7cyn7dj1-21" value="Administrador General" style="whiteSpace=wrap;html=1;aspect=fixed;fillColor=#FCFCAA;" parent="k1vFS3CNRWPC7cyn7dj1-1" vertex="1">
          <mxGeometry x="220" y="187.5" width="80" height="80" as="geometry" />
        </mxCell>
        <mxCell id="k1vFS3CNRWPC7cyn7dj1-22" style="edgeStyle=orthogonalEdgeStyle;rounded=0;orthogonalLoop=1;jettySize=auto;html=1;" parent="k1vFS3CNRWPC7cyn7dj1-1" source="k1vFS3CNRWPC7cyn7dj1-23" target="k1vFS3CNRWPC7cyn7dj1-18" edge="1">
          <mxGeometry relative="1" as="geometry" />
        </mxCell>
        <mxCell id="k1vFS3CNRWPC7cyn7dj1-23" value="Administrador Spa" style="whiteSpace=wrap;html=1;aspect=fixed;fillColor=#FCFCAA;" parent="k1vFS3CNRWPC7cyn7dj1-1" vertex="1">
          <mxGeometry x="220" y="277.5" width="80" height="80" as="geometry" />
        </mxCell>
        <mxCell id="k1vFS3CNRWPC7cyn7dj1-24" style="edgeStyle=orthogonalEdgeStyle;rounded=0;orthogonalLoop=1;jettySize=auto;html=1;curved=1;" parent="k1vFS3CNRWPC7cyn7dj1-1" source="k1vFS3CNRWPC7cyn7dj1-25" target="k1vFS3CNRWPC7cyn7dj1-18" edge="1">
          <mxGeometry relative="1" as="geometry">
            <Array as="points">
              <mxPoint x="380" y="412" />
              <mxPoint x="380" y="318" />
            </Array>
          </mxGeometry>
        </mxCell>
        <mxCell id="k1vFS3CNRWPC7cyn7dj1-25" value="Lider de Inventario" style="whiteSpace=wrap;html=1;aspect=fixed;fillColor=#FCFCAA;" parent="k1vFS3CNRWPC7cyn7dj1-1" vertex="1">
          <mxGeometry x="220" y="372.5" width="80" height="80" as="geometry" />
        </mxCell>
        <mxCell id="k1vFS3CNRWPC7cyn7dj1-26" value="&lt;font style=&quot;font-size: 11px;&quot;&gt;TipoPago&lt;/font&gt;&lt;br&gt;&amp;nbsp;Eliminado" style="whiteSpace=wrap;html=1;aspect=fixed;fillColor=#D6DCE4;" parent="k1vFS3CNRWPC7cyn7dj1-1" vertex="1">
          <mxGeometry x="690" y="277.5" width="80" height="80" as="geometry" />
        </mxCell>
        <mxCell id="k1vFS3CNRWPC7cyn7dj1-27" style="edgeStyle=orthogonalEdgeStyle;rounded=0;orthogonalLoop=1;jettySize=auto;html=1;strokeWidth=3;strokeColor=#41ff33;" parent="k1vFS3CNRWPC7cyn7dj1-1" source="k1vFS3CNRWPC7cyn7dj1-29" target="k1vFS3CNRWPC7cyn7dj1-37" edge="1">
          <mxGeometry relative="1" as="geometry">
            <Array as="points">
              <mxPoint x="1240" y="1000" />
              <mxPoint x="510" y="1000" />
            </Array>
          </mxGeometry>
        </mxCell>
        <mxCell id="k1vFS3CNRWPC7cyn7dj1-28" style="edgeStyle=orthogonalEdgeStyle;rounded=0;orthogonalLoop=1;jettySize=auto;html=1;strokeWidth=3;strokeColor=#41ff33;" parent="k1vFS3CNRWPC7cyn7dj1-1" source="k1vFS3CNRWPC7cyn7dj1-29" target="k1vFS3CNRWPC7cyn7dj1-44" edge="1">
          <mxGeometry relative="1" as="geometry">
            <Array as="points">
              <mxPoint x="1240" y="1000" />
              <mxPoint x="1070" y="1000" />
            </Array>
          </mxGeometry>
        </mxCell>
        <mxCell id="k1vFS3CNRWPC7cyn7dj1-29" value="&lt;font style=&quot;font-size: 11px;&quot;&gt;TipoPago &lt;/font&gt;Modificado" style="whiteSpace=wrap;html=1;aspect=fixed;fillColor=#FFC000;" parent="k1vFS3CNRWPC7cyn7dj1-1" vertex="1">
          <mxGeometry x="1180" y="287.5" width="80" height="80" as="geometry" />
        </mxCell>
        <mxCell id="k1vFS3CNRWPC7cyn7dj1-30" value="&lt;font style=&quot;font-size: 11px;&quot;&gt;TipoPago&lt;/font&gt;" style="whiteSpace=wrap;html=1;aspect=fixed;fillColor=#FFFF00;" parent="k1vFS3CNRWPC7cyn7dj1-1" vertex="1">
          <mxGeometry x="1100" y="287.5" width="80" height="80" as="geometry" />
        </mxCell>
        <mxCell id="k1vFS3CNRWPC7cyn7dj1-31" value="Modificar&lt;br&gt;&lt;font style=&quot;font-size: 11px;&quot;&gt;TipoPago&lt;/font&gt;" style="whiteSpace=wrap;html=1;aspect=fixed;fillColor=#BDD7EE;" parent="k1vFS3CNRWPC7cyn7dj1-1" vertex="1">
          <mxGeometry x="1020" y="287.5" width="80" height="80" as="geometry" />
        </mxCell>
        <mxCell id="k1vFS3CNRWPC7cyn7dj1-32" value="&lt;font style=&quot;font-size: 11px;&quot;&gt;TipoPago &lt;/font&gt;Consultado" style="whiteSpace=wrap;html=1;aspect=fixed;fillColor=#D6DCE4;" parent="k1vFS3CNRWPC7cyn7dj1-1" vertex="1">
          <mxGeometry x="1260" y="287.5" width="80" height="80" as="geometry" />
        </mxCell>
        <mxCell id="k1vFS3CNRWPC7cyn7dj1-33" style="edgeStyle=orthogonalEdgeStyle;rounded=0;orthogonalLoop=1;jettySize=auto;html=1;strokeColor=#2213fb;strokeWidth=3;" parent="k1vFS3CNRWPC7cyn7dj1-1" source="k1vFS3CNRWPC7cyn7dj1-35" target="k1vFS3CNRWPC7cyn7dj1-18" edge="1">
          <mxGeometry relative="1" as="geometry">
            <Array as="points">
              <mxPoint x="670" y="910" />
              <mxPoint x="120" y="910" />
              <mxPoint x="120" y="130" />
              <mxPoint x="490" y="130" />
            </Array>
          </mxGeometry>
        </mxCell>
        <mxCell id="k1vFS3CNRWPC7cyn7dj1-34" style="edgeStyle=orthogonalEdgeStyle;rounded=0;orthogonalLoop=1;jettySize=auto;html=1;strokeColor=#2213fb;strokeWidth=3;" parent="k1vFS3CNRWPC7cyn7dj1-1" source="k1vFS3CNRWPC7cyn7dj1-35" target="k1vFS3CNRWPC7cyn7dj1-31" edge="1">
          <mxGeometry relative="1" as="geometry">
            <Array as="points">
              <mxPoint x="670" y="910" />
              <mxPoint x="1030" y="910" />
            </Array>
          </mxGeometry>
        </mxCell>
        <mxCell id="k1vFS3CNRWPC7cyn7dj1-35" value="&lt;font style=&quot;font-size: 11px;&quot;&gt;TipoPago &lt;/font&gt;Consultado" style="whiteSpace=wrap;html=1;aspect=fixed;fillColor=#FFC000;" parent="k1vFS3CNRWPC7cyn7dj1-1" vertex="1">
          <mxGeometry x="630" y="1100" width="80" height="80" as="geometry" />
        </mxCell>
        <mxCell id="k1vFS3CNRWPC7cyn7dj1-36" value="&lt;font style=&quot;font-size: 11px;&quot;&gt;TipoPago&lt;/font&gt;" style="whiteSpace=wrap;html=1;aspect=fixed;fillColor=#FFFF00;" parent="k1vFS3CNRWPC7cyn7dj1-1" vertex="1">
          <mxGeometry x="550" y="1100" width="80" height="80" as="geometry" />
        </mxCell>
        <mxCell id="k1vFS3CNRWPC7cyn7dj1-37" value="Consultar&lt;br&gt;&lt;font style=&quot;font-size: 11px;&quot;&gt;TipoPago&lt;/font&gt;" style="whiteSpace=wrap;html=1;aspect=fixed;fillColor=#BDD7EE;" parent="k1vFS3CNRWPC7cyn7dj1-1" vertex="1">
          <mxGeometry x="470" y="1100" width="80" height="80" as="geometry" />
        </mxCell>
        <mxCell id="k1vFS3CNRWPC7cyn7dj1-38" value="&lt;font style=&quot;font-size: 11px;&quot;&gt;TipoPago&lt;/font&gt;&lt;br&gt;Creado" style="whiteSpace=wrap;html=1;aspect=fixed;fillColor=#D6DCE4;" parent="k1vFS3CNRWPC7cyn7dj1-1" vertex="1">
          <mxGeometry x="710" y="1100" width="80" height="80" as="geometry" />
        </mxCell>
        <mxCell id="k1vFS3CNRWPC7cyn7dj1-39" style="edgeStyle=orthogonalEdgeStyle;rounded=0;orthogonalLoop=1;jettySize=auto;html=1;strokeColor=#fff93d;strokeWidth=3;" parent="k1vFS3CNRWPC7cyn7dj1-1" source="k1vFS3CNRWPC7cyn7dj1-42" target="k1vFS3CNRWPC7cyn7dj1-18" edge="1">
          <mxGeometry relative="1" as="geometry">
            <Array as="points">
              <mxPoint x="1230" y="930" />
              <mxPoint x="1550" y="930" />
              <mxPoint x="1550" y="130" />
              <mxPoint x="490" y="130" />
            </Array>
          </mxGeometry>
        </mxCell>
        <mxCell id="k1vFS3CNRWPC7cyn7dj1-40" style="edgeStyle=orthogonalEdgeStyle;rounded=0;orthogonalLoop=1;jettySize=auto;html=1;strokeColor=#fff93d;strokeWidth=3;" parent="k1vFS3CNRWPC7cyn7dj1-1" source="k1vFS3CNRWPC7cyn7dj1-42" target="k1vFS3CNRWPC7cyn7dj1-37" edge="1">
          <mxGeometry relative="1" as="geometry">
            <Array as="points">
              <mxPoint x="1230" y="930" />
              <mxPoint x="510" y="930" />
            </Array>
          </mxGeometry>
        </mxCell>
        <mxCell id="k1vFS3CNRWPC7cyn7dj1-41" style="edgeStyle=orthogonalEdgeStyle;rounded=0;orthogonalLoop=1;jettySize=auto;html=1;entryX=0.5;entryY=0;entryDx=0;entryDy=0;strokeColor=#fff93d;strokeWidth=3;" parent="k1vFS3CNRWPC7cyn7dj1-1" source="k1vFS3CNRWPC7cyn7dj1-42" target="k1vFS3CNRWPC7cyn7dj1-31" edge="1">
          <mxGeometry relative="1" as="geometry">
            <Array as="points">
              <mxPoint x="1230" y="930" />
              <mxPoint x="1550" y="930" />
              <mxPoint x="1550" y="130" />
              <mxPoint x="1060" y="130" />
            </Array>
          </mxGeometry>
        </mxCell>
        <mxCell id="k1vFS3CNRWPC7cyn7dj1-42" value="&lt;font style=&quot;font-size: 11px;&quot;&gt;TipoPago Eliminado&lt;/font&gt;" style="whiteSpace=wrap;html=1;aspect=fixed;fillColor=#FFC000;" parent="k1vFS3CNRWPC7cyn7dj1-1" vertex="1">
          <mxGeometry x="1190" y="1100" width="80" height="80" as="geometry" />
        </mxCell>
        <mxCell id="k1vFS3CNRWPC7cyn7dj1-43" value="&lt;font style=&quot;font-size: 11px;&quot;&gt;TipoPago&lt;/font&gt;" style="whiteSpace=wrap;html=1;aspect=fixed;fillColor=#FFFF00;" parent="k1vFS3CNRWPC7cyn7dj1-1" vertex="1">
          <mxGeometry x="1110" y="1100" width="80" height="80" as="geometry" />
        </mxCell>
        <mxCell id="k1vFS3CNRWPC7cyn7dj1-44" value="Eliminar&lt;br style=&quot;border-color: var(--border-color);&quot;&gt;&lt;font style=&quot;font-size: 11px;&quot;&gt;Consentimiento&lt;/font&gt;" style="whiteSpace=wrap;html=1;aspect=fixed;fillColor=#BDD7EE;" parent="k1vFS3CNRWPC7cyn7dj1-1" vertex="1">
          <mxGeometry x="1030" y="1100" width="80" height="80" as="geometry" />
        </mxCell>
        <mxCell id="k1vFS3CNRWPC7cyn7dj1-45" value="&lt;font style=&quot;font-size: 11px;&quot;&gt;TipoPago &lt;/font&gt;Creado" style="whiteSpace=wrap;html=1;aspect=fixed;fillColor=#D6DCE4;" parent="k1vFS3CNRWPC7cyn7dj1-1" vertex="1">
          <mxGeometry x="1270" y="1100" width="80" height="80" as="geometry" />
        </mxCell>
        <mxCell id="k1vFS3CNRWPC7cyn7dj1-46" value="Pol-TipoPago-002:&amp;nbsp;Los datos del nuevo tipo de pago deben ser valido a nivel de tipo de dato, longitud, obligatoriedad, formato y rango" style="whiteSpace=wrap;html=1;aspect=fixed;fillColor=#CC99FF;" parent="k1vFS3CNRWPC7cyn7dj1-1" vertex="1">
          <mxGeometry x="500" y="507.5" width="150" height="150" as="geometry" />
        </mxCell>
        <mxCell id="k1vFS3CNRWPC7cyn7dj1-47" value="&lt;font style=&quot;font-size: 11px;&quot;&gt;TipoPago &lt;/font&gt;Creado" style="whiteSpace=wrap;html=1;aspect=fixed;fillColor=#D6DCE4;" parent="k1vFS3CNRWPC7cyn7dj1-1" vertex="1">
          <mxGeometry x="1260" y="367.5" width="80" height="80" as="geometry" />
        </mxCell>
        <mxCell id="k1vFS3CNRWPC7cyn7dj1-48" value="&lt;font style=&quot;font-size: 11px;&quot;&gt;TipoPago &lt;/font&gt;Consultado" style="whiteSpace=wrap;html=1;aspect=fixed;fillColor=#D6DCE4;" parent="k1vFS3CNRWPC7cyn7dj1-1" vertex="1">
          <mxGeometry x="1270" y="1180" width="80" height="80" as="geometry" />
        </mxCell>
        <mxCell id="k1vFS3CNRWPC7cyn7dj1-49" value="&lt;font style=&quot;font-size: 11px;&quot;&gt;TipoPago &lt;/font&gt;Modificado" style="whiteSpace=wrap;html=1;aspect=fixed;fillColor=#D6DCE4;" parent="k1vFS3CNRWPC7cyn7dj1-1" vertex="1">
          <mxGeometry x="1270" y="1260" width="80" height="80" as="geometry" />
        </mxCell>
        <mxCell id="k1vFS3CNRWPC7cyn7dj1-50" value="&lt;font style=&quot;font-size: 11px;&quot;&gt;TipoPago&lt;/font&gt;&lt;br&gt;&amp;nbsp;Consultado" style="whiteSpace=wrap;html=1;aspect=fixed;fillColor=#D6DCE4;" parent="k1vFS3CNRWPC7cyn7dj1-1" vertex="1">
          <mxGeometry x="690" y="357.5" width="80" height="80" as="geometry" />
        </mxCell>
        <mxCell id="k1vFS3CNRWPC7cyn7dj1-51" value="&lt;font style=&quot;font-size: 11px;&quot;&gt;TipoPago&lt;/font&gt;&lt;br&gt;Modificado" style="whiteSpace=wrap;html=1;aspect=fixed;fillColor=#D6DCE4;" parent="k1vFS3CNRWPC7cyn7dj1-1" vertex="1">
          <mxGeometry x="710" y="1180" width="80" height="80" as="geometry" />
        </mxCell>
        <mxCell id="k1vFS3CNRWPC7cyn7dj1-52" value="Pol-TipoPago-004:&amp;nbsp;Si se envía parametros de consulta se deben de ser valido a nivel de tipo de dato, longitud, obligatoriedad, formato y rango" style="whiteSpace=wrap;html=1;aspect=fixed;fillColor=#CC99FF;" parent="k1vFS3CNRWPC7cyn7dj1-1" vertex="1">
          <mxGeometry x="515" y="1180" width="150" height="150" as="geometry" />
        </mxCell>
        <mxCell id="k1vFS3CNRWPC7cyn7dj1-53" value="Pol-TipoPago-005:&amp;nbsp;No debe existir otro tipo de pago, a excepcion de que sea el mismo tipo de pago que se esta modificando" style="whiteSpace=wrap;html=1;aspect=fixed;fillColor=#CC99FF;" parent="k1vFS3CNRWPC7cyn7dj1-1" vertex="1">
          <mxGeometry x="1065" y="367.5" width="150" height="150" as="geometry" />
        </mxCell>
        <mxCell id="k1vFS3CNRWPC7cyn7dj1-54" value="Pol-TipoPago-006:&amp;nbsp;Debe existir el tipo de pago que se esta modificando&amp;nbsp;&amp;nbsp;" style="whiteSpace=wrap;html=1;aspect=fixed;fillColor=#CC99FF;" parent="k1vFS3CNRWPC7cyn7dj1-1" vertex="1">
          <mxGeometry x="1065" y="667.5" width="150" height="150" as="geometry" />
        </mxCell>
        <mxCell id="k1vFS3CNRWPC7cyn7dj1-55" value="Pol-TipoPago-002:&amp;nbsp;Los datos del nuevo tipo de pago deben ser valido a nivel de tipo de dato, longitud, obligatoriedad, formato y rango" style="whiteSpace=wrap;html=1;aspect=fixed;fillColor=#CC99FF;" parent="k1vFS3CNRWPC7cyn7dj1-1" vertex="1">
          <mxGeometry x="1065" y="517.5" width="152.5" height="152.5" as="geometry" />
        </mxCell>
        <mxCell id="k1vFS3CNRWPC7cyn7dj1-56" style="edgeStyle=orthogonalEdgeStyle;rounded=0;orthogonalLoop=1;jettySize=auto;html=1;curved=1;" parent="k1vFS3CNRWPC7cyn7dj1-1" source="k1vFS3CNRWPC7cyn7dj1-57" edge="1">
          <mxGeometry relative="1" as="geometry">
            <mxPoint x="1015" y="330" as="targetPoint" />
            <Array as="points">
              <mxPoint x="945" y="200" />
              <mxPoint x="945" y="330" />
            </Array>
          </mxGeometry>
        </mxCell>
        <mxCell id="k1vFS3CNRWPC7cyn7dj1-57" value="Administrador General" style="whiteSpace=wrap;html=1;aspect=fixed;fillColor=#FCFCAA;" parent="k1vFS3CNRWPC7cyn7dj1-1" vertex="1">
          <mxGeometry x="785" y="197.5" width="80" height="80" as="geometry" />
        </mxCell>
        <mxCell id="k1vFS3CNRWPC7cyn7dj1-58" style="edgeStyle=orthogonalEdgeStyle;rounded=0;orthogonalLoop=1;jettySize=auto;html=1;" parent="k1vFS3CNRWPC7cyn7dj1-1" source="k1vFS3CNRWPC7cyn7dj1-59" edge="1">
          <mxGeometry relative="1" as="geometry">
            <mxPoint x="1015" y="328" as="targetPoint" />
          </mxGeometry>
        </mxCell>
        <mxCell id="k1vFS3CNRWPC7cyn7dj1-59" value="Administrador Spa" style="whiteSpace=wrap;html=1;aspect=fixed;fillColor=#FCFCAA;" parent="k1vFS3CNRWPC7cyn7dj1-1" vertex="1">
          <mxGeometry x="785" y="287.5" width="80" height="80" as="geometry" />
        </mxCell>
        <mxCell id="k1vFS3CNRWPC7cyn7dj1-60" style="edgeStyle=orthogonalEdgeStyle;rounded=0;orthogonalLoop=1;jettySize=auto;html=1;curved=1;" parent="k1vFS3CNRWPC7cyn7dj1-1" source="k1vFS3CNRWPC7cyn7dj1-61" edge="1">
          <mxGeometry relative="1" as="geometry">
            <mxPoint x="1015" y="328" as="targetPoint" />
            <Array as="points">
              <mxPoint x="945" y="422" />
              <mxPoint x="945" y="328" />
            </Array>
          </mxGeometry>
        </mxCell>
        <mxCell id="k1vFS3CNRWPC7cyn7dj1-61" value="Lider de Inventario" style="whiteSpace=wrap;html=1;aspect=fixed;fillColor=#FCFCAA;" parent="k1vFS3CNRWPC7cyn7dj1-1" vertex="1">
          <mxGeometry x="785" y="382.5" width="80" height="80" as="geometry" />
        </mxCell>
        <mxCell id="k1vFS3CNRWPC7cyn7dj1-62" value="Pol-TipoPago-007:&amp;nbsp;Que el tipo de pago exista" style="whiteSpace=wrap;html=1;aspect=fixed;fillColor=#CC99FF;" parent="k1vFS3CNRWPC7cyn7dj1-1" vertex="1">
          <mxGeometry x="1075" y="1180" width="150" height="150" as="geometry" />
        </mxCell>
        <mxCell id="k1vFS3CNRWPC7cyn7dj1-63" style="edgeStyle=orthogonalEdgeStyle;rounded=0;orthogonalLoop=1;jettySize=auto;html=1;curved=1;" parent="k1vFS3CNRWPC7cyn7dj1-1" source="k1vFS3CNRWPC7cyn7dj1-64" edge="1">
          <mxGeometry relative="1" as="geometry">
            <mxPoint x="470" y="1140" as="targetPoint" />
            <Array as="points">
              <mxPoint x="400" y="1010" />
              <mxPoint x="400" y="1140" />
            </Array>
          </mxGeometry>
        </mxCell>
        <mxCell id="k1vFS3CNRWPC7cyn7dj1-64" value="Administrador General" style="whiteSpace=wrap;html=1;aspect=fixed;fillColor=#FCFCAA;" parent="k1vFS3CNRWPC7cyn7dj1-1" vertex="1">
          <mxGeometry x="240" y="1007.5" width="80" height="80" as="geometry" />
        </mxCell>
        <mxCell id="k1vFS3CNRWPC7cyn7dj1-65" style="edgeStyle=orthogonalEdgeStyle;rounded=0;orthogonalLoop=1;jettySize=auto;html=1;" parent="k1vFS3CNRWPC7cyn7dj1-1" source="k1vFS3CNRWPC7cyn7dj1-66" edge="1">
          <mxGeometry relative="1" as="geometry">
            <mxPoint x="470" y="1138" as="targetPoint" />
          </mxGeometry>
        </mxCell>
        <mxCell id="k1vFS3CNRWPC7cyn7dj1-66" value="Administrador Spa" style="whiteSpace=wrap;html=1;aspect=fixed;fillColor=#FCFCAA;" parent="k1vFS3CNRWPC7cyn7dj1-1" vertex="1">
          <mxGeometry x="240" y="1097.5" width="80" height="80" as="geometry" />
        </mxCell>
        <mxCell id="k1vFS3CNRWPC7cyn7dj1-67" style="edgeStyle=orthogonalEdgeStyle;rounded=0;orthogonalLoop=1;jettySize=auto;html=1;curved=1;" parent="k1vFS3CNRWPC7cyn7dj1-1" source="k1vFS3CNRWPC7cyn7dj1-68" edge="1">
          <mxGeometry relative="1" as="geometry">
            <mxPoint x="470" y="1138" as="targetPoint" />
            <Array as="points">
              <mxPoint x="400" y="1232" />
              <mxPoint x="400" y="1138" />
            </Array>
          </mxGeometry>
        </mxCell>
        <mxCell id="k1vFS3CNRWPC7cyn7dj1-68" value="Lider de Inventario" style="whiteSpace=wrap;html=1;aspect=fixed;fillColor=#FCFCAA;" parent="k1vFS3CNRWPC7cyn7dj1-1" vertex="1">
          <mxGeometry x="240" y="1192.5" width="80" height="80" as="geometry" />
        </mxCell>
        <mxCell id="k1vFS3CNRWPC7cyn7dj1-69" style="edgeStyle=orthogonalEdgeStyle;rounded=0;orthogonalLoop=1;jettySize=auto;html=1;curved=1;" parent="k1vFS3CNRWPC7cyn7dj1-1" source="k1vFS3CNRWPC7cyn7dj1-70" target="k1vFS3CNRWPC7cyn7dj1-37" edge="1">
          <mxGeometry relative="1" as="geometry">
            <Array as="points">
              <mxPoint x="400" y="1330" />
              <mxPoint x="400" y="1140" />
            </Array>
          </mxGeometry>
        </mxCell>
        <mxCell id="k1vFS3CNRWPC7cyn7dj1-70" value="Trabajador" style="whiteSpace=wrap;html=1;aspect=fixed;fillColor=#FCFCAA;" parent="k1vFS3CNRWPC7cyn7dj1-1" vertex="1">
          <mxGeometry x="240" y="1290" width="80" height="80" as="geometry" />
        </mxCell>
        <mxCell id="k1vFS3CNRWPC7cyn7dj1-71" style="edgeStyle=orthogonalEdgeStyle;rounded=0;orthogonalLoop=1;jettySize=auto;html=1;curved=1;" parent="k1vFS3CNRWPC7cyn7dj1-1" source="k1vFS3CNRWPC7cyn7dj1-72" edge="1">
          <mxGeometry relative="1" as="geometry">
            <mxPoint x="1030" y="1137.5" as="targetPoint" />
            <Array as="points">
              <mxPoint x="960" y="1007.5" />
              <mxPoint x="960" y="1137.5" />
            </Array>
          </mxGeometry>
        </mxCell>
        <mxCell id="k1vFS3CNRWPC7cyn7dj1-72" value="Administrador General" style="whiteSpace=wrap;html=1;aspect=fixed;fillColor=#FCFCAA;" parent="k1vFS3CNRWPC7cyn7dj1-1" vertex="1">
          <mxGeometry x="800" y="1005" width="80" height="80" as="geometry" />
        </mxCell>
        <mxCell id="k1vFS3CNRWPC7cyn7dj1-73" style="edgeStyle=orthogonalEdgeStyle;rounded=0;orthogonalLoop=1;jettySize=auto;html=1;" parent="k1vFS3CNRWPC7cyn7dj1-1" source="k1vFS3CNRWPC7cyn7dj1-74" edge="1">
          <mxGeometry relative="1" as="geometry">
            <mxPoint x="1030" y="1135.5" as="targetPoint" />
          </mxGeometry>
        </mxCell>
        <mxCell id="k1vFS3CNRWPC7cyn7dj1-74" value="Administrador Spa" style="whiteSpace=wrap;html=1;aspect=fixed;fillColor=#FCFCAA;" parent="k1vFS3CNRWPC7cyn7dj1-1" vertex="1">
          <mxGeometry x="800" y="1095" width="80" height="80" as="geometry" />
        </mxCell>
        <mxCell id="k1vFS3CNRWPC7cyn7dj1-75" style="edgeStyle=orthogonalEdgeStyle;rounded=0;orthogonalLoop=1;jettySize=auto;html=1;curved=1;" parent="k1vFS3CNRWPC7cyn7dj1-1" source="k1vFS3CNRWPC7cyn7dj1-76" edge="1">
          <mxGeometry relative="1" as="geometry">
            <mxPoint x="1030" y="1135.5" as="targetPoint" />
            <Array as="points">
              <mxPoint x="960" y="1229.5" />
              <mxPoint x="960" y="1135.5" />
            </Array>
          </mxGeometry>
        </mxCell>
        <mxCell id="k1vFS3CNRWPC7cyn7dj1-76" value="Lider de Inventario" style="whiteSpace=wrap;html=1;aspect=fixed;fillColor=#FCFCAA;" parent="k1vFS3CNRWPC7cyn7dj1-1" vertex="1">
          <mxGeometry x="800" y="1190" width="80" height="80" as="geometry" />
        </mxCell>
        <mxCell id="k1vFS3CNRWPC7cyn7dj1-77" value="Pol-TipoPago-003:&amp;nbsp;Debe de exisitir una factura a la cual debe estar asociado el tipo de pago" style="whiteSpace=wrap;html=1;aspect=fixed;fillColor=#CC99FF;" parent="k1vFS3CNRWPC7cyn7dj1-1" vertex="1">
          <mxGeometry x="500" y="657.5" width="150" height="150" as="geometry" />
        </mxCell>
        <mxCell id="k1vFS3CNRWPC7cyn7dj1-78" value="Pol-TipoPago-008:&amp;nbsp;El usuario debe estar permitido para consultar" style="whiteSpace=wrap;html=1;aspect=fixed;fillColor=#CC99FF;" parent="k1vFS3CNRWPC7cyn7dj1-1" vertex="1">
          <mxGeometry x="515" y="1330" width="150" height="150" as="geometry" />
        </mxCell>
        <mxCell id="k1vFS3CNRWPC7cyn7dj1-79" value="&lt;font style=&quot;font-size: 11px;&quot;&gt;TipoPago&lt;/font&gt;&lt;br&gt;Eliminado" style="whiteSpace=wrap;html=1;aspect=fixed;fillColor=#D6DCE4;" parent="k1vFS3CNRWPC7cyn7dj1-1" vertex="1">
          <mxGeometry x="710" y="1260" width="80" height="80" as="geometry" />
        </mxCell>
      </root>
    </mxGraphModel>
  </diagram>
</mxfile>
